<svg width="64" height="64" viewBox="0 0 64 64" fill="none" xmlns="http://www.w3.org/2000/svg">
  <rect x="6" y="8" width="52" height="52" rx="16" fill="#0E3B81"/>
  <rect x="22" y="18" width="20" height="32" rx="2" fill="white"/>
  <rect x="14" y="28" width="12" height="22" rx="2" fill="white"/>
  <rect x="25" y="22" width="4" height="4" rx="1" fill="#0E3B81"/>
  <rect x="30" y="22" width="4" height="4" rx="1" fill="#0E3B81"/>
  <rect x="35" y="22" width="4" height="4" rx="1" fill="#0E3B81"/>
  <rect x="25" y="29" width="4" height="4" rx="1" fill="#0E3B81"/>
  <rect x="30" y="29" width="4" height="4" rx="1" fill="#0E3B81"/>
  <rect x="35" y="29" width="4" height="4" rx="1" fill="#0E3B81"/>
  <rect x="25" y="36" width="4" height="4" rx="1" fill="#0E3B81"/>
  <rect x="30" y="36" width="4" height="4" rx="1" fill="#0E3B81"/>
  <rect x="35" y="36" width="4" height="4" rx="1" fill="#0E3B81"/>
  <rect x="30" y="43" width="4" height="7" rx="1" fill="#0E3B81"/>
  <rect x="16" y="31" width="3.5" height="3.5" rx="0.75" fill="#0E3B81"/>
  <rect x="21" y="31" width="3.5" height="3.5" rx="0.75" fill="#0E3B81"/>
  <rect x="16" y="37" width="3.5" height="3.5" rx="0.75" fill="#0E3B81"/>
  <rect x="21" y="37" width="3.5" height="3.5" rx="0.75" fill="#0E3B81"/>
  <path d="M44 44C46 38 48 30 46 22" stroke="#F1B541" stroke-width="2.5" stroke-linecap="round"/>
</svg>
